<svg width="720" height="115" viewBox="0 0 720 115" fill="none" xmlns="http://www.w3.org/2000/svg">
<path d="M178.326 94.8769C174.284 94.8769 170.696 94.2075 167.562 92.8688C164.456 91.5026 161.995 89.4531 160.181 86.7213C158.394 83.9616 157.5 80.5055 157.5 76.3522C157.5 72.8551 158.119 69.9043 159.356 67.4999C160.593 65.0955 162.297 63.142 164.469 61.6393C166.641 60.1365 169.143 59.0026 171.975 58.2376C174.807 57.4453 177.831 56.9125 181.047 56.6393C184.649 56.3114 187.549 55.9699 189.749 55.6147C191.948 55.2321 193.543 54.6994 194.532 54.0163C195.55 53.3059 196.058 52.3087 196.058 51.0245V50.8196C196.058 48.7158 195.33 47.0901 193.873 45.9426C192.416 44.795 190.45 44.2213 187.975 44.2213C185.309 44.2213 183.164 44.795 181.542 45.9426C179.92 47.0901 178.889 48.6748 178.449 50.6967L159.851 50.0409C160.4 46.2158 161.816 42.8005 164.098 39.7951C166.408 36.7623 169.569 34.3853 173.583 32.6639C177.625 30.9153 182.477 30.041 188.14 30.041C192.182 30.041 195.907 30.5191 199.316 31.4754C202.725 32.4043 205.694 33.7705 208.224 35.5737C210.753 37.3497 212.705 39.5355 214.08 42.1311C215.482 44.7267 216.183 47.6912 216.183 51.0245V93.8113H197.213V85.0406H196.718C195.591 87.1719 194.148 88.9751 192.388 90.4505C190.656 91.9263 188.608 93.0327 186.243 93.7704C183.907 94.5081 181.267 94.8769 178.326 94.8769ZM184.553 81.7621C186.725 81.7621 188.677 81.3249 190.409 80.4507C192.168 79.5765 193.57 78.3743 194.615 76.8442C195.66 75.2866 196.182 73.4835 196.182 71.4343V65.4507C195.605 65.7512 194.904 66.0245 194.079 66.2704C193.282 66.5163 192.402 66.7485 191.44 66.9671C190.477 67.1857 189.488 67.3769 188.47 67.5409C187.453 67.7048 186.477 67.8551 185.542 67.9917C183.645 68.2922 182.023 68.7567 180.676 69.3851C179.357 70.0136 178.339 70.8332 177.625 71.8441C176.937 72.8277 176.594 74.0026 176.594 75.3688C176.594 77.4453 177.336 79.0297 178.82 80.1228C180.333 81.2158 182.243 81.7621 184.553 81.7621ZM264.542 66.6392V30.8607H284.666V93.8113H265.449V82.09H264.79C263.387 85.9423 260.996 89.0026 257.614 91.2703C254.26 93.5107 250.205 94.6312 245.448 94.6312C241.132 94.6312 237.338 93.6473 234.066 91.6801C230.795 89.7128 228.252 86.967 226.437 83.4427C224.623 79.8905 223.702 75.7377 223.674 70.9835V30.8607H243.84V67.0491C243.868 70.4644 244.775 73.1556 246.562 75.1226C248.349 77.0899 250.782 78.0738 253.861 78.0738C255.868 78.0738 257.669 77.6366 259.263 76.7619C260.886 75.8603 262.164 74.5627 263.099 72.8687C264.061 71.1474 264.542 69.0709 264.542 66.6392ZM292.663 93.8113V30.8607H312.252V42.336H312.912C314.066 38.183 315.95 35.0956 318.561 33.0738C321.173 31.0246 324.211 30 327.675 30C328.61 30 329.572 30.0683 330.562 30.2049C331.552 30.3142 332.473 30.4918 333.325 30.7377V48.1557C332.363 47.8278 331.098 47.5682 329.531 47.377C327.992 47.1858 326.617 47.0901 325.407 47.0901C323.015 47.0901 320.857 47.6229 318.933 48.6885C317.036 49.7267 315.537 51.1884 314.437 53.0737C313.365 54.9316 312.829 57.1174 312.829 59.6311V93.8113H292.663ZM352.178 94.8769C348.136 94.8769 344.549 94.2075 341.415 92.8688C338.308 91.5026 335.848 89.4531 334.033 86.7213C332.246 83.9616 331.353 80.5055 331.353 76.3522C331.353 72.8551 331.971 69.9043 333.208 67.4999C334.445 65.0955 336.15 63.142 338.322 61.6393C340.494 60.1365 342.995 59.0026 345.827 58.2376C348.659 57.4453 351.683 56.9125 354.9 56.6393C358.501 56.3114 361.402 55.9699 363.601 55.6147C365.801 55.2321 367.395 54.6994 368.385 54.0163C369.402 53.3059 369.911 52.3087 369.911 51.0245V50.8196C369.911 48.7158 369.182 47.0901 367.725 45.9426C366.268 44.795 364.302 44.2213 361.828 44.2213C359.161 44.2213 357.017 44.795 355.395 45.9426C353.773 47.0901 352.741 48.6748 352.302 50.6967L333.703 50.0409C334.253 46.2158 335.669 42.8005 337.951 39.7951C340.26 36.7623 343.422 34.3853 347.435 32.6639C351.477 30.9153 356.329 30.041 361.993 30.041C366.034 30.041 369.76 30.5191 373.168 31.4754C376.578 32.4043 379.547 33.7705 382.076 35.5737C384.606 37.3497 386.558 39.5355 387.932 42.1311C389.334 44.7267 390.035 47.6912 390.035 51.0245V93.8113H371.066V85.0406H370.571C369.443 87.1719 368 88.9751 366.24 90.4505C364.508 91.9263 362.46 93.0327 360.096 93.7704C357.759 94.5081 355.12 94.8769 352.178 94.8769ZM358.405 81.7621C360.577 81.7621 362.529 81.3249 364.261 80.4507C366.02 79.5765 367.423 78.3743 368.467 76.8442C369.512 75.2866 370.034 73.4835 370.034 71.4343V65.4507C369.457 65.7512 368.756 66.0245 367.931 66.2704C367.134 66.5163 366.254 66.7485 365.292 66.9671C364.33 67.1857 363.34 67.3769 362.323 67.5409C361.305 67.7048 360.329 67.8551 359.395 67.9917C357.498 68.2922 355.876 68.7567 354.528 69.3851C353.209 70.0136 352.192 70.8332 351.477 71.8441C350.79 72.8277 350.446 74.0026 350.446 75.3688C350.446 77.4453 351.188 79.0297 352.673 80.1228C354.185 81.2158 356.096 81.7621 358.405 81.7621ZM427.095 95C420.414 95 414.682 93.6338 409.898 90.9015C405.142 88.1692 401.486 84.3713 398.929 79.5082C396.372 74.6172 395.094 68.9616 395.094 62.5409C395.094 56.0928 396.372 50.4371 398.929 45.5737C401.513 40.683 405.184 36.8716 409.94 34.1393C414.724 31.4071 420.428 30.041 427.054 30.041C432.91 30.041 438.01 31.0929 442.353 33.1967C446.725 35.3005 450.134 38.2786 452.581 42.1311C455.055 45.9563 456.361 50.4507 456.498 55.6147H437.652C437.267 52.3906 436.168 49.8633 434.353 48.0327C432.566 46.2021 430.229 45.2868 427.342 45.2868C425.006 45.2868 422.958 45.9426 421.198 47.254C419.438 48.5382 418.064 50.4507 417.074 52.9917C416.112 55.5054 415.631 58.6201 415.631 62.336C415.631 66.0518 416.112 69.1939 417.074 71.7622C418.064 74.3031 419.438 76.2291 421.198 77.5409C422.958 78.8249 425.006 79.4668 427.342 79.4668C429.212 79.4668 430.862 79.0711 432.291 78.2786C433.748 77.4861 434.944 76.3248 435.879 74.7952C436.814 73.2376 437.405 71.3524 437.652 69.1392H456.498C456.306 74.3304 455 78.8658 452.581 82.7459C450.189 86.6256 446.821 89.6445 442.477 91.8032C438.161 93.9344 433.034 95 427.095 95ZM491.589 95C484.963 95 479.245 93.7021 474.434 91.1064C469.65 88.4832 465.966 84.754 463.382 79.9179C460.825 75.0544 459.547 69.2758 459.547 62.5819C459.547 56.0792 460.839 50.3961 463.423 45.5328C466.007 40.642 469.65 36.8442 474.351 34.1393C479.052 31.4071 484.592 30.041 490.971 30.041C495.479 30.041 499.603 30.7377 503.342 32.1311C507.081 33.5246 510.312 35.5874 513.033 38.3197C515.755 41.0519 517.872 44.4262 519.384 48.4426C520.896 52.4316 521.652 57.0081 521.652 62.172V67.172H466.599V55.5327H502.889C502.861 53.4016 502.353 51.5026 501.363 49.836C500.373 48.1693 499.012 46.8716 497.28 45.9426C495.576 44.9863 493.61 44.5082 491.383 44.5082C489.128 44.5082 487.108 45.0136 485.321 46.0245C483.534 47.0082 482.118 48.3606 481.073 50.0819C480.028 51.7759 479.479 53.7021 479.424 55.8606V67.7048C479.424 70.2731 479.933 72.5272 480.95 74.4671C481.967 76.3796 483.41 77.8689 485.28 78.934C487.149 79.9997 489.376 80.5325 491.96 80.5325C493.747 80.5325 495.369 80.2867 496.826 79.7948C498.284 79.3033 499.535 78.5792 500.579 77.6227C501.624 76.6667 502.407 75.4915 502.93 74.0982L521.446 74.6312C520.676 78.7566 518.986 82.3497 516.374 85.4095C513.789 88.4423 510.394 90.8058 506.188 92.4999C501.981 94.1666 497.115 95 491.589 95ZM547.279 57.9097V93.8113H527.113V30.8607H546.289V42.418H546.99C548.392 38.5655 550.784 35.5464 554.166 33.3607C557.547 31.1475 561.575 30.041 566.248 30.041C570.702 30.041 574.565 31.0382 577.837 33.0327C581.136 35 583.692 37.7595 585.507 41.3115C587.349 44.836 588.256 48.9617 588.229 53.6885V93.8113H568.063V57.6229C568.09 54.1256 567.197 51.3934 565.383 49.4262C563.595 47.459 561.107 46.4754 557.918 46.4754C555.801 46.4754 553.932 46.9398 552.31 47.8688C550.715 48.7704 549.478 50.0682 548.598 51.7622C547.746 53.4562 547.306 55.5054 547.279 57.9097ZM625.443 95C618.763 95 613.031 93.6338 608.247 90.9015C603.491 88.1692 599.834 84.3713 597.277 79.5082C594.721 74.6172 593.442 68.9616 593.442 62.5409C593.442 56.0928 594.721 50.4371 597.277 45.5737C599.862 40.683 603.532 36.8716 608.288 34.1393C613.072 31.4071 618.777 30.041 625.402 30.041C631.258 30.041 636.358 31.0929 640.704 33.1967C645.073 35.3005 648.484 38.2786 650.928 42.1311C653.405 45.9563 654.707 50.4507 654.847 55.6147H636C635.616 52.3906 634.516 49.8633 632.701 48.0327C630.915 46.2021 628.577 45.2868 625.691 45.2868C623.354 45.2868 621.306 45.9426 619.546 47.254C617.787 48.5382 616.412 50.4507 615.422 52.9917C614.46 55.5054 613.979 58.6201 613.979 62.336C613.979 66.0518 614.46 69.1939 615.422 71.7622C616.412 74.3031 617.787 76.2291 619.546 77.5409C621.306 78.8249 623.354 79.4668 625.691 79.4668C627.56 79.4668 629.21 79.0711 630.64 78.2786C632.097 77.4861 633.293 76.3248 634.227 74.7952C635.162 73.2376 635.753 71.3524 636 69.1392H654.847C654.654 74.3304 653.347 78.8658 650.928 82.7459C648.537 86.6256 645.17 89.6445 640.825 91.8032C636.509 93.9344 631.382 95 625.443 95ZM689.937 95C683.313 95 677.594 93.7021 672.784 91.1064C667.999 88.4832 664.316 84.754 661.728 79.9179C659.173 75.0544 657.896 69.2758 657.896 62.5819C657.896 56.0792 659.187 50.3961 661.771 45.5328C664.355 40.642 667.999 36.8442 672.702 34.1393C677.4 31.4071 682.94 30.041 689.318 30.041C693.828 30.041 697.95 30.7377 701.69 32.1311C705.431 33.5246 708.658 35.5874 711.382 38.3197C714.102 41.0519 716.221 44.4262 717.731 48.4426C719.245 52.4316 720 57.0081 720 62.172V67.172H664.945V55.5327H701.236C701.211 53.4016 700.698 51.5026 699.711 49.836C698.719 48.1693 697.36 46.8716 695.628 45.9426C693.924 44.9863 691.96 44.5082 689.729 44.5082C687.479 44.5082 685.457 45.0136 683.671 46.0245C681.881 47.0082 680.468 48.3606 679.423 50.0819C678.378 51.7759 677.826 53.7021 677.773 55.8606V67.7048C677.773 70.2731 678.281 72.5272 679.297 74.4671C680.313 76.3796 681.76 77.8689 683.628 78.934C685.495 79.9997 687.726 80.5325 690.31 80.5325C692.095 80.5325 693.716 80.2867 695.173 79.7948C696.634 79.3033 697.882 78.5792 698.928 77.6227C699.973 76.6667 700.757 75.4915 701.279 74.0982L719.792 74.6312C719.023 78.7566 717.334 82.3497 714.721 85.4095C712.137 88.4423 708.74 90.8058 704.536 92.4999C700.331 94.1666 695.463 95 689.937 95Z" fill="black"/>
<circle cx="57.5" cy="57.5" r="57.5" fill="#EF4C23"/>
<path fill-rule="evenodd" clip-rule="evenodd" d="M91.3422 66.3147C91.3618 65.8289 91.3716 65.3406 91.3716 64.8499C91.3716 45.6011 76.2064 29.9969 57.4991 29.9969C38.7919 29.9969 23.6266 45.6011 23.6266 64.8499C23.6266 65.3445 23.6366 65.8368 23.6565 66.3264C27.7947 51.0978 41.38 39.9277 57.5009 39.9277C73.6177 39.9277 87.2003 51.0921 91.3422 66.3147Z" fill="white"/>
</svg>
