<svg xmlns="http://www.w3.org/2000/svg" width="1696" height="270" viewBox="0 0 1696 270" fill="none"><mask id="path-1-outside-1_104_2" maskUnits="userSpaceOnUse" x="364.783" y="65.4348" width="1332" height="163" fill="black"><rect fill="white" x="364.783" y="65.4348" width="1332" height="163"></rect><path d="M418.677 222.754C409.189 222.754 400.766 221.183 393.407 218.04C386.113 214.832 380.336 210.02 376.076 203.607C371.88 197.127 369.783 189.013 369.783 179.262C369.783 171.051 371.235 164.123 374.14 158.478C377.044 152.833 381.046 148.246 386.145 144.718C391.245 141.19 397.119 138.528 403.767 136.732C410.415 134.872 417.516 133.621 425.068 132.979C433.523 132.209 440.333 131.408 445.497 130.574C450.661 129.676 454.405 128.425 456.728 126.821C459.117 125.153 460.311 122.812 460.311 119.797V119.316C460.311 114.376 458.6 110.559 455.179 107.865C451.758 105.171 447.143 103.824 441.334 103.824C435.073 103.824 430.038 105.171 426.23 107.865C422.421 110.559 420.001 114.28 418.968 119.027L375.301 117.487C376.592 108.507 379.917 100.488 385.274 93.4319C390.696 86.3114 398.119 80.7306 407.543 76.6892C417.032 72.5838 428.424 70.531 441.721 70.531C451.21 70.531 459.956 71.6536 467.96 73.8988C475.964 76.0798 482.935 79.2872 488.873 83.521C494.812 87.6906 499.395 92.8225 502.622 98.9165C505.913 105.011 507.559 111.971 507.559 119.797V220.253H463.022V199.661H461.86C459.213 204.664 455.825 208.898 451.694 212.362C447.627 215.827 442.818 218.425 437.267 220.157C431.781 221.889 425.584 222.754 418.677 222.754ZM433.298 191.963C438.397 191.963 442.98 190.937 447.046 188.884C451.177 186.832 454.469 184.009 456.922 180.417C459.375 176.76 460.601 172.526 460.601 167.715V153.667C459.246 154.373 457.6 155.014 455.663 155.591C453.791 156.169 451.726 156.714 449.467 157.227C447.208 157.74 444.884 158.189 442.496 158.574C440.107 158.959 437.816 159.312 435.621 159.633C431.168 160.338 427.359 161.429 424.196 162.904C421.098 164.38 418.71 166.304 417.032 168.678C415.418 170.987 414.611 173.745 414.611 176.953C414.611 181.828 416.354 185.548 419.839 188.114C423.39 190.681 427.875 191.963 433.298 191.963ZM621.098 156.457V72.4555H668.347V220.253H623.229V192.733H621.68C618.388 201.778 612.772 208.963 604.833 214.287C596.958 219.547 587.438 222.178 576.27 222.178C566.137 222.178 557.229 219.868 549.547 215.249C541.867 210.63 535.896 204.183 531.635 195.909C527.375 187.569 525.213 177.819 525.149 166.657V72.4555H572.494V157.42C572.559 165.438 574.689 171.757 578.884 176.375C583.081 180.994 588.793 183.304 596.023 183.304C600.734 183.304 604.962 182.277 608.705 180.224C612.515 178.107 615.516 175.06 617.71 171.083C619.969 167.042 621.098 162.166 621.098 156.457ZM687.123 220.253V72.4555H733.113V99.3976H734.663C737.373 89.6472 741.795 82.3984 747.927 77.6515C754.059 72.8404 761.191 70.4348 769.324 70.4348C771.519 70.4348 773.779 70.5952 776.102 70.9159C778.426 71.1725 780.588 71.5895 782.589 72.1668V113.061C780.33 112.291 777.361 111.682 773.682 111.233C770.067 110.784 766.84 110.559 764 110.559C758.384 110.559 753.316 111.81 748.798 114.312C744.345 116.75 740.827 120.182 738.245 124.608C735.727 128.97 734.468 134.102 734.468 140.003V220.253H687.123ZM826.853 222.754C817.364 222.754 808.94 221.183 801.582 218.04C794.289 214.832 788.512 210.02 784.252 203.607C780.055 197.127 777.958 189.013 777.958 179.262C777.958 171.051 779.41 164.123 782.315 158.478C785.22 152.833 789.222 148.246 794.321 144.718C799.42 141.19 805.294 138.528 811.943 136.732C818.591 134.872 825.691 133.621 833.244 132.979C841.699 132.209 848.508 131.408 853.672 130.574C858.836 129.676 862.579 128.425 864.904 126.821C867.292 125.153 868.486 122.812 868.486 119.797V119.316C868.486 114.376 866.776 110.559 863.354 107.865C859.934 105.171 855.318 103.824 849.509 103.824C843.247 103.824 838.214 105.171 834.405 107.865C830.597 110.559 828.176 114.28 827.143 119.027L783.477 117.487C784.768 108.507 788.092 100.488 793.449 93.4319C798.872 86.3114 806.294 80.7306 815.718 76.6892C825.207 72.5838 836.599 70.531 849.897 70.531C859.385 70.531 868.131 71.6536 876.135 73.8988C884.139 76.0798 891.11 79.2872 897.048 83.521C902.987 87.6906 907.57 92.8225 910.797 98.9165C914.089 105.011 915.735 111.971 915.735 119.797V220.253H871.197V199.661H870.035C867.388 204.664 864 208.898 859.869 212.362C855.802 215.827 850.994 218.425 845.442 220.157C839.956 221.889 833.759 222.754 826.853 222.754ZM841.473 191.963C846.572 191.963 851.155 190.937 855.221 188.884C859.352 186.832 862.644 184.009 865.097 180.417C867.55 176.76 868.777 172.526 868.777 167.715V153.667C867.421 154.373 865.775 155.014 863.838 155.591C861.967 156.169 859.901 156.714 857.642 157.227C855.383 157.74 853.059 158.189 850.67 158.574C848.282 158.959 845.991 159.312 843.796 159.633C839.343 160.338 835.535 161.429 832.371 162.904C829.273 164.38 826.885 166.304 825.207 168.678C823.593 170.987 822.786 173.745 822.786 176.953C822.786 181.828 824.529 185.548 828.014 188.114C831.564 190.681 836.051 191.963 841.473 191.963ZM1002.75 223.044C987.06 223.044 973.602 219.836 962.37 213.421C951.204 207.006 942.619 198.089 936.616 186.671C930.613 175.188 927.612 161.91 927.612 146.835C927.612 131.696 930.613 118.418 936.616 106.999C942.684 95.5166 951.301 86.568 962.468 80.1533C973.699 73.7385 987.093 70.531 1002.65 70.531C1016.4 70.531 1028.37 73.0007 1038.57 77.9402C1048.83 82.8796 1056.84 89.8716 1062.58 98.9165C1068.39 107.897 1071.46 118.45 1071.78 130.574H1027.53C1026.63 123.004 1024.05 117.071 1019.79 112.772C1015.59 108.475 1010.1 106.326 1003.33 106.326C997.84 106.326 993.031 107.865 988.9 110.944C984.768 113.959 981.541 118.45 979.218 124.415C976.958 130.317 975.829 137.63 975.829 146.354C975.829 155.078 976.958 162.455 979.218 168.485C981.541 174.451 984.768 178.973 988.9 182.053C993.031 185.067 997.84 186.574 1003.33 186.574C1007.72 186.574 1011.59 185.645 1014.94 183.785C1018.37 181.924 1021.17 179.197 1023.37 175.606C1025.56 171.949 1026.95 167.523 1027.53 162.327H1071.78C1071.33 174.515 1068.26 185.163 1062.58 194.273C1056.96 203.382 1049.06 210.47 1038.86 215.538C1028.73 220.542 1016.69 223.044 1002.75 223.044ZM1154.17 223.044C1138.61 223.044 1125.18 219.996 1113.89 213.902C1102.66 207.743 1094.01 198.988 1087.94 187.633C1081.94 176.215 1078.94 162.648 1078.94 146.931C1078.94 131.664 1081.97 118.321 1088.04 106.903C1094.1 95.4205 1102.66 86.5039 1113.69 80.1533C1124.73 73.7385 1137.74 70.531 1152.71 70.531C1163.3 70.531 1172.98 72.1668 1181.76 75.4383C1190.54 78.7099 1198.12 83.5531 1204.51 89.9679C1210.9 96.3827 1215.87 104.305 1219.42 113.735C1222.97 123.1 1224.75 133.845 1224.75 145.969V157.708H1095.49V130.381H1180.7C1180.63 125.378 1179.44 120.919 1177.11 117.006C1174.79 113.093 1171.59 110.046 1167.53 107.865C1163.53 105.62 1158.91 104.497 1153.68 104.497C1148.39 104.497 1143.64 105.684 1139.45 108.058C1135.25 110.367 1131.93 113.542 1129.48 117.584C1127.02 121.561 1125.73 126.083 1125.6 131.151V158.959C1125.6 164.989 1126.8 170.281 1129.19 174.836C1131.57 179.326 1134.96 182.823 1139.35 185.323C1143.74 187.825 1148.97 189.076 1155.04 189.076C1159.23 189.076 1163.04 188.499 1166.46 187.344C1169.88 186.19 1172.82 184.49 1175.27 182.245C1177.73 180 1179.57 177.241 1180.79 173.97L1224.26 175.221C1222.46 184.907 1218.49 193.343 1212.36 200.527C1206.29 207.647 1198.32 213.196 1188.44 217.174C1178.57 221.087 1167.14 223.044 1154.17 223.044ZM1284.92 135.962V220.253H1237.57V72.4555H1282.59V99.5901H1284.24C1287.53 90.5452 1293.15 83.4568 1301.08 78.3251C1309.02 73.129 1318.48 70.531 1329.45 70.531C1339.91 70.531 1348.98 72.8724 1356.66 77.5552C1364.41 82.1739 1370.41 88.6529 1374.67 96.9921C1378.99 105.267 1381.12 114.954 1381.06 126.051V220.253H1333.71V135.288C1333.78 127.078 1331.68 120.663 1327.42 116.044C1323.22 111.425 1317.38 109.116 1309.89 109.116C1304.92 109.116 1300.54 110.207 1296.73 112.388C1292.98 114.504 1290.08 117.552 1288.01 121.529C1286.01 125.506 1284.98 130.317 1284.92 135.962ZM1468.43 223.044C1452.75 223.044 1439.29 219.836 1428.06 213.421C1416.89 207.006 1408.31 198.089 1402.3 186.671C1396.3 175.188 1393.3 161.91 1393.3 146.835C1393.3 131.696 1396.3 118.418 1402.3 106.999C1408.37 95.5166 1416.99 86.568 1428.15 80.1533C1439.39 73.7385 1452.78 70.531 1468.34 70.531C1482.08 70.531 1494.06 73.0007 1504.26 77.9402C1514.52 82.8796 1522.53 89.8716 1528.27 98.9165C1534.08 107.897 1537.14 118.45 1537.47 130.574H1493.22C1492.32 123.004 1489.73 117.071 1485.47 112.772C1481.28 108.475 1475.79 106.326 1469.01 106.326C1463.53 106.326 1458.72 107.865 1454.59 110.944C1450.46 113.959 1447.23 118.45 1444.91 124.415C1442.65 130.317 1441.52 137.63 1441.52 146.354C1441.52 155.078 1442.65 162.455 1444.91 168.485C1447.23 174.451 1450.46 178.973 1454.59 182.053C1458.72 185.067 1463.53 186.574 1469.01 186.574C1473.4 186.574 1477.28 185.645 1480.63 183.785C1484.05 181.924 1486.86 179.197 1489.05 175.606C1491.25 171.949 1492.64 167.523 1493.22 162.327H1537.47C1537.01 174.515 1533.95 185.163 1528.27 194.273C1522.65 203.382 1514.75 210.47 1504.54 215.538C1494.41 220.542 1482.38 223.044 1468.43 223.044ZM1619.85 223.044C1604.3 223.044 1590.87 219.996 1579.58 213.902C1568.34 207.743 1559.7 198.988 1553.62 187.633C1547.62 176.215 1544.62 162.648 1544.62 146.931C1544.62 131.664 1547.66 118.321 1553.72 106.903C1559.79 95.4205 1568.34 86.5039 1579.39 80.1533C1590.42 73.7385 1603.43 70.531 1618.4 70.531C1628.99 70.531 1638.67 72.1668 1647.45 75.4383C1656.23 78.7099 1663.81 83.5531 1670.2 89.9679C1676.59 96.3827 1681.56 104.305 1685.11 113.735C1688.66 123.1 1690.43 133.845 1690.43 145.969V157.708H1561.18V130.381H1646.38C1646.32 125.378 1645.12 120.919 1642.8 117.006C1640.47 113.093 1637.28 110.046 1633.21 107.865C1629.21 105.62 1624.6 104.497 1619.36 104.497C1614.08 104.497 1609.33 105.684 1605.14 108.058C1600.94 110.367 1597.62 113.542 1595.17 117.584C1592.71 121.561 1591.42 126.083 1591.29 131.151V158.959C1591.29 164.989 1592.49 170.281 1594.87 174.836C1597.26 179.326 1600.65 182.823 1605.04 185.323C1609.42 187.825 1614.66 189.076 1620.73 189.076C1624.92 189.076 1628.73 188.499 1632.14 187.344C1635.58 186.19 1638.51 184.49 1640.96 182.245C1643.41 180 1645.25 177.241 1646.48 173.97L1689.95 175.221C1688.14 184.907 1684.18 193.343 1678.04 200.527C1671.97 207.647 1664 213.196 1654.13 217.174C1644.25 221.087 1632.83 223.044 1619.85 223.044Z"></path></mask><path d="M418.677 222.754C409.189 222.754 400.766 221.183 393.407 218.04C386.113 214.832 380.336 210.02 376.076 203.607C371.88 197.127 369.783 189.013 369.783 179.262C369.783 171.051 371.235 164.123 374.14 158.478C377.044 152.833 381.046 148.246 386.145 144.718C391.245 141.19 397.119 138.528 403.767 136.732C410.415 134.872 417.516 133.621 425.068 132.979C433.523 132.209 440.333 131.408 445.497 130.574C450.661 129.676 454.405 128.425 456.728 126.821C459.117 125.153 460.311 122.812 460.311 119.797V119.316C460.311 114.376 458.6 110.559 455.179 107.865C451.758 105.171 447.143 103.824 441.334 103.824C435.073 103.824 430.038 105.171 426.23 107.865C422.421 110.559 420.001 114.28 418.968 119.027L375.301 117.487C376.592 108.507 379.917 100.488 385.274 93.4319C390.696 86.3114 398.119 80.7306 407.543 76.6892C417.032 72.5838 428.424 70.531 441.721 70.531C451.21 70.531 459.956 71.6536 467.96 73.8988C475.964 76.0798 482.935 79.2872 488.873 83.521C494.812 87.6906 499.395 92.8225 502.622 98.9165C505.913 105.011 507.559 111.971 507.559 119.797V220.253H463.022V199.661H461.86C459.213 204.664 455.825 208.898 451.694 212.362C447.627 215.827 442.818 218.425 437.267 220.157C431.781 221.889 425.584 222.754 418.677 222.754ZM433.298 191.963C438.397 191.963 442.98 190.937 447.046 188.884C451.177 186.832 454.469 184.009 456.922 180.417C459.375 176.76 460.601 172.526 460.601 167.715V153.667C459.246 154.373 457.6 155.014 455.663 155.591C453.791 156.169 451.726 156.714 449.467 157.227C447.208 157.74 444.884 158.189 442.496 158.574C440.107 158.959 437.816 159.312 435.621 159.633C431.168 160.338 427.359 161.429 424.196 162.904C421.098 164.38 418.71 166.304 417.032 168.678C415.418 170.987 414.611 173.745 414.611 176.953C414.611 181.828 416.354 185.548 419.839 188.114C423.39 190.681 427.875 191.963 433.298 191.963ZM621.098 156.457V72.4555H668.347V220.253H623.229V192.733H621.68C618.388 201.778 612.772 208.963 604.833 214.287C596.958 219.547 587.438 222.178 576.27 222.178C566.137 222.178 557.229 219.868 549.547 215.249C541.867 210.63 535.896 204.183 531.635 195.909C527.375 187.569 525.213 177.819 525.149 166.657V72.4555H572.494V157.42C572.559 165.438 574.689 171.757 578.884 176.375C583.081 180.994 588.793 183.304 596.023 183.304C600.734 183.304 604.962 182.277 608.705 180.224C612.515 178.107 615.516 175.06 617.71 171.083C619.969 167.042 621.098 162.166 621.098 156.457ZM687.123 220.253V72.4555H733.113V99.3976H734.663C737.373 89.6472 741.795 82.3984 747.927 77.6515C754.059 72.8404 761.191 70.4348 769.324 70.4348C771.519 70.4348 773.779 70.5952 776.102 70.9159C778.426 71.1725 780.588 71.5895 782.589 72.1668V113.061C780.33 112.291 777.361 111.682 773.682 111.233C770.067 110.784 766.84 110.559 764 110.559C758.384 110.559 753.316 111.81 748.798 114.312C744.345 116.75 740.827 120.182 738.245 124.608C735.727 128.97 734.468 134.102 734.468 140.003V220.253H687.123ZM826.853 222.754C817.364 222.754 808.94 221.183 801.582 218.04C794.289 214.832 788.512 210.02 784.252 203.607C780.055 197.127 777.958 189.013 777.958 179.262C777.958 171.051 779.41 164.123 782.315 158.478C785.22 152.833 789.222 148.246 794.321 144.718C799.42 141.19 805.294 138.528 811.943 136.732C818.591 134.872 825.691 133.621 833.244 132.979C841.699 132.209 848.508 131.408 853.672 130.574C858.836 129.676 862.579 128.425 864.904 126.821C867.292 125.153 868.486 122.812 868.486 119.797V119.316C868.486 114.376 866.776 110.559 863.354 107.865C859.934 105.171 855.318 103.824 849.509 103.824C843.247 103.824 838.214 105.171 834.405 107.865C830.597 110.559 828.176 114.28 827.143 119.027L783.477 117.487C784.768 108.507 788.092 100.488 793.449 93.4319C798.872 86.3114 806.294 80.7306 815.718 76.6892C825.207 72.5838 836.599 70.531 849.897 70.531C859.385 70.531 868.131 71.6536 876.135 73.8988C884.139 76.0798 891.11 79.2872 897.048 83.521C902.987 87.6906 907.57 92.8225 910.797 98.9165C914.089 105.011 915.735 111.971 915.735 119.797V220.253H871.197V199.661H870.035C867.388 204.664 864 208.898 859.869 212.362C855.802 215.827 850.994 218.425 845.442 220.157C839.956 221.889 833.759 222.754 826.853 222.754ZM841.473 191.963C846.572 191.963 851.155 190.937 855.221 188.884C859.352 186.832 862.644 184.009 865.097 180.417C867.55 176.76 868.777 172.526 868.777 167.715V153.667C867.421 154.373 865.775 155.014 863.838 155.591C861.967 156.169 859.901 156.714 857.642 157.227C855.383 157.74 853.059 158.189 850.67 158.574C848.282 158.959 845.991 159.312 843.796 159.633C839.343 160.338 835.535 161.429 832.371 162.904C829.273 164.38 826.885 166.304 825.207 168.678C823.593 170.987 822.786 173.745 822.786 176.953C822.786 181.828 824.529 185.548 828.014 188.114C831.564 190.681 836.051 191.963 841.473 191.963ZM1002.75 223.044C987.06 223.044 973.602 219.836 962.37 213.421C951.204 207.006 942.619 198.089 936.616 186.671C930.613 175.188 927.612 161.91 927.612 146.835C927.612 131.696 930.613 118.418 936.616 106.999C942.684 95.5166 951.301 86.568 962.468 80.1533C973.699 73.7385 987.093 70.531 1002.65 70.531C1016.4 70.531 1028.37 73.0007 1038.57 77.9402C1048.83 82.8796 1056.84 89.8716 1062.58 98.9165C1068.39 107.897 1071.46 118.45 1071.78 130.574H1027.53C1026.63 123.004 1024.05 117.071 1019.79 112.772C1015.59 108.475 1010.1 106.326 1003.33 106.326C997.84 106.326 993.031 107.865 988.9 110.944C984.768 113.959 981.541 118.45 979.218 124.415C976.958 130.317 975.829 137.63 975.829 146.354C975.829 155.078 976.958 162.455 979.218 168.485C981.541 174.451 984.768 178.973 988.9 182.053C993.031 185.067 997.84 186.574 1003.33 186.574C1007.72 186.574 1011.59 185.645 1014.94 183.785C1018.37 181.924 1021.17 179.197 1023.37 175.606C1025.56 171.949 1026.95 167.523 1027.53 162.327H1071.78C1071.33 174.515 1068.26 185.163 1062.58 194.273C1056.96 203.382 1049.06 210.47 1038.86 215.538C1028.73 220.542 1016.69 223.044 1002.75 223.044ZM1154.17 223.044C1138.61 223.044 1125.18 219.996 1113.89 213.902C1102.66 207.743 1094.01 198.988 1087.94 187.633C1081.94 176.215 1078.94 162.648 1078.94 146.931C1078.94 131.664 1081.97 118.321 1088.04 106.903C1094.1 95.4205 1102.66 86.5039 1113.69 80.1533C1124.73 73.7385 1137.74 70.531 1152.71 70.531C1163.3 70.531 1172.98 72.1668 1181.76 75.4383C1190.54 78.7099 1198.12 83.5531 1204.51 89.9679C1210.9 96.3827 1215.87 104.305 1219.42 113.735C1222.97 123.1 1224.75 133.845 1224.75 145.969V157.708H1095.49V130.381H1180.7C1180.63 125.378 1179.44 120.919 1177.11 117.006C1174.79 113.093 1171.59 110.046 1167.53 107.865C1163.53 105.62 1158.91 104.497 1153.68 104.497C1148.39 104.497 1143.64 105.684 1139.45 108.058C1135.25 110.367 1131.93 113.542 1129.48 117.584C1127.02 121.561 1125.73 126.083 1125.6 131.151V158.959C1125.6 164.989 1126.8 170.281 1129.19 174.836C1131.57 179.326 1134.96 182.823 1139.35 185.323C1143.74 187.825 1148.97 189.076 1155.04 189.076C1159.23 189.076 1163.04 188.499 1166.46 187.344C1169.88 186.19 1172.82 184.49 1175.27 182.245C1177.73 180 1179.57 177.241 1180.79 173.97L1224.26 175.221C1222.46 184.907 1218.49 193.343 1212.36 200.527C1206.29 207.647 1198.32 213.196 1188.44 217.174C1178.57 221.087 1167.14 223.044 1154.17 223.044ZM1284.92 135.962V220.253H1237.57V72.4555H1282.59V99.5901H1284.24C1287.53 90.5452 1293.15 83.4568 1301.08 78.3251C1309.02 73.129 1318.48 70.531 1329.45 70.531C1339.91 70.531 1348.98 72.8724 1356.66 77.5552C1364.41 82.1739 1370.41 88.6529 1374.67 96.9921C1378.99 105.267 1381.12 114.954 1381.06 126.051V220.253H1333.71V135.288C1333.78 127.078 1331.68 120.663 1327.42 116.044C1323.22 111.425 1317.38 109.116 1309.89 109.116C1304.92 109.116 1300.54 110.207 1296.73 112.388C1292.98 114.504 1290.08 117.552 1288.01 121.529C1286.01 125.506 1284.98 130.317 1284.92 135.962ZM1468.43 223.044C1452.75 223.044 1439.29 219.836 1428.06 213.421C1416.89 207.006 1408.31 198.089 1402.3 186.671C1396.3 175.188 1393.3 161.91 1393.3 146.835C1393.3 131.696 1396.3 118.418 1402.3 106.999C1408.37 95.5166 1416.99 86.568 1428.15 80.1533C1439.39 73.7385 1452.78 70.531 1468.34 70.531C1482.08 70.531 1494.06 73.0007 1504.26 77.9402C1514.52 82.8796 1522.53 89.8716 1528.27 98.9165C1534.08 107.897 1537.14 118.45 1537.47 130.574H1493.22C1492.32 123.004 1489.73 117.071 1485.47 112.772C1481.28 108.475 1475.79 106.326 1469.01 106.326C1463.53 106.326 1458.72 107.865 1454.59 110.944C1450.46 113.959 1447.23 118.45 1444.91 124.415C1442.65 130.317 1441.52 137.63 1441.52 146.354C1441.52 155.078 1442.65 162.455 1444.91 168.485C1447.23 174.451 1450.46 178.973 1454.59 182.053C1458.72 185.067 1463.53 186.574 1469.01 186.574C1473.4 186.574 1477.28 185.645 1480.63 183.785C1484.05 181.924 1486.86 179.197 1489.05 175.606C1491.25 171.949 1492.64 167.523 1493.22 162.327H1537.47C1537.01 174.515 1533.95 185.163 1528.27 194.273C1522.65 203.382 1514.75 210.47 1504.54 215.538C1494.41 220.542 1482.38 223.044 1468.43 223.044ZM1619.85 223.044C1604.3 223.044 1590.87 219.996 1579.58 213.902C1568.34 207.743 1559.7 198.988 1553.62 187.633C1547.62 176.215 1544.62 162.648 1544.62 146.931C1544.62 131.664 1547.66 118.321 1553.72 106.903C1559.79 95.4205 1568.34 86.5039 1579.39 80.1533C1590.42 73.7385 1603.43 70.531 1618.4 70.531C1628.99 70.531 1638.67 72.1668 1647.45 75.4383C1656.23 78.7099 1663.81 83.5531 1670.2 89.9679C1676.59 96.3827 1681.56 104.305 1685.11 113.735C1688.66 123.1 1690.43 133.845 1690.43 145.969V157.708H1561.18V130.381H1646.38C1646.32 125.378 1645.12 120.919 1642.8 117.006C1640.47 113.093 1637.28 110.046 1633.21 107.865C1629.21 105.62 1624.6 104.497 1619.36 104.497C1614.08 104.497 1609.33 105.684 1605.14 108.058C1600.94 110.367 1597.62 113.542 1595.17 117.584C1592.71 121.561 1591.42 126.083 1591.29 131.151V158.959C1591.29 164.989 1592.49 170.281 1594.87 174.836C1597.26 179.326 1600.65 182.823 1605.04 185.323C1609.42 187.825 1614.66 189.076 1620.73 189.076C1624.92 189.076 1628.73 188.499 1632.14 187.344C1635.58 186.19 1638.51 184.49 1640.96 182.245C1643.41 180 1645.25 177.241 1646.48 173.97L1689.95 175.221C1688.14 184.907 1684.18 193.343 1678.04 200.527C1671.97 207.647 1664 213.196 1654.13 217.174C1644.25 221.087 1632.83 223.044 1619.85 223.044Z" fill="black"></path><path d="M418.677 222.754C409.189 222.754 400.766 221.183 393.407 218.04C386.113 214.832 380.336 210.02 376.076 203.607C371.88 197.127 369.783 189.013 369.783 179.262C369.783 171.051 371.235 164.123 374.14 158.478C377.044 152.833 381.046 148.246 386.145 144.718C391.245 141.19 397.119 138.528 403.767 136.732C410.415 134.872 417.516 133.621 425.068 132.979C433.523 132.209 440.333 131.408 445.497 130.574C450.661 129.676 454.405 128.425 456.728 126.821C459.117 125.153 460.311 122.812 460.311 119.797V119.316C460.311 114.376 458.6 110.559 455.179 107.865C451.758 105.171 447.143 103.824 441.334 103.824C435.073 103.824 430.038 105.171 426.23 107.865C422.421 110.559 420.001 114.28 418.968 119.027L375.301 117.487C376.592 108.507 379.917 100.488 385.274 93.4319C390.696 86.3114 398.119 80.7306 407.543 76.6892C417.032 72.5838 428.424 70.531 441.721 70.531C451.21 70.531 459.956 71.6536 467.96 73.8988C475.964 76.0798 482.935 79.2872 488.873 83.521C494.812 87.6906 499.395 92.8225 502.622 98.9165C505.913 105.011 507.559 111.971 507.559 119.797V220.253H463.022V199.661H461.86C459.213 204.664 455.825 208.898 451.694 212.362C447.627 215.827 442.818 218.425 437.267 220.157C431.781 221.889 425.584 222.754 418.677 222.754ZM433.298 191.963C438.397 191.963 442.98 190.937 447.046 188.884C451.177 186.832 454.469 184.009 456.922 180.417C459.375 176.76 460.601 172.526 460.601 167.715V153.667C459.246 154.373 457.6 155.014 455.663 155.591C453.791 156.169 451.726 156.714 449.467 157.227C447.208 157.74 444.884 158.189 442.496 158.574C440.107 158.959 437.816 159.312 435.621 159.633C431.168 160.338 427.359 161.429 424.196 162.904C421.098 164.38 418.71 166.304 417.032 168.678C415.418 170.987 414.611 173.745 414.611 176.953C414.611 181.828 416.354 185.548 419.839 188.114C423.39 190.681 427.875 191.963 433.298 191.963ZM621.098 156.457V72.4555H668.347V220.253H623.229V192.733H621.68C618.388 201.778 612.772 208.963 604.833 214.287C596.958 219.547 587.438 222.178 576.27 222.178C566.137 222.178 557.229 219.868 549.547 215.249C541.867 210.63 535.896 204.183 531.635 195.909C527.375 187.569 525.213 177.819 525.149 166.657V72.4555H572.494V157.42C572.559 165.438 574.689 171.757 578.884 176.375C583.081 180.994 588.793 183.304 596.023 183.304C600.734 183.304 604.962 182.277 608.705 180.224C612.515 178.107 615.516 175.06 617.71 171.083C619.969 167.042 621.098 162.166 621.098 156.457ZM687.123 220.253V72.4555H733.113V99.3976H734.663C737.373 89.6472 741.795 82.3984 747.927 77.6515C754.059 72.8404 761.191 70.4348 769.324 70.4348C771.519 70.4348 773.779 70.5952 776.102 70.9159C778.426 71.1725 780.588 71.5895 782.589 72.1668V113.061C780.33 112.291 777.361 111.682 773.682 111.233C770.067 110.784 766.84 110.559 764 110.559C758.384 110.559 753.316 111.81 748.798 114.312C744.345 116.75 740.827 120.182 738.245 124.608C735.727 128.97 734.468 134.102 734.468 140.003V220.253H687.123ZM826.853 222.754C817.364 222.754 808.94 221.183 801.582 218.04C794.289 214.832 788.512 210.02 784.252 203.607C780.055 197.127 777.958 189.013 777.958 179.262C777.958 171.051 779.41 164.123 782.315 158.478C785.22 152.833 789.222 148.246 794.321 144.718C799.42 141.19 805.294 138.528 811.943 136.732C818.591 134.872 825.691 133.621 833.244 132.979C841.699 132.209 848.508 131.408 853.672 130.574C858.836 129.676 862.579 128.425 864.904 126.821C867.292 125.153 868.486 122.812 868.486 119.797V119.316C868.486 114.376 866.776 110.559 863.354 107.865C859.934 105.171 855.318 103.824 849.509 103.824C843.247 103.824 838.214 105.171 834.405 107.865C830.597 110.559 828.176 114.28 827.143 119.027L783.477 117.487C784.768 108.507 788.092 100.488 793.449 93.4319C798.872 86.3114 806.294 80.7306 815.718 76.6892C825.207 72.5838 836.599 70.531 849.897 70.531C859.385 70.531 868.131 71.6536 876.135 73.8988C884.139 76.0798 891.11 79.2872 897.048 83.521C902.987 87.6906 907.57 92.8225 910.797 98.9165C914.089 105.011 915.735 111.971 915.735 119.797V220.253H871.197V199.661H870.035C867.388 204.664 864 208.898 859.869 212.362C855.802 215.827 850.994 218.425 845.442 220.157C839.956 221.889 833.759 222.754 826.853 222.754ZM841.473 191.963C846.572 191.963 851.155 190.937 855.221 188.884C859.352 186.832 862.644 184.009 865.097 180.417C867.55 176.76 868.777 172.526 868.777 167.715V153.667C867.421 154.373 865.775 155.014 863.838 155.591C861.967 156.169 859.901 156.714 857.642 157.227C855.383 157.74 853.059 158.189 850.67 158.574C848.282 158.959 845.991 159.312 843.796 159.633C839.343 160.338 835.535 161.429 832.371 162.904C829.273 164.38 826.885 166.304 825.207 168.678C823.593 170.987 822.786 173.745 822.786 176.953C822.786 181.828 824.529 185.548 828.014 188.114C831.564 190.681 836.051 191.963 841.473 191.963ZM1002.75 223.044C987.06 223.044 973.602 219.836 962.37 213.421C951.204 207.006 942.619 198.089 936.616 186.671C930.613 175.188 927.612 161.91 927.612 146.835C927.612 131.696 930.613 118.418 936.616 106.999C942.684 95.5166 951.301 86.568 962.468 80.1533C973.699 73.7385 987.093 70.531 1002.65 70.531C1016.4 70.531 1028.37 73.0007 1038.57 77.9402C1048.83 82.8796 1056.84 89.8716 1062.58 98.9165C1068.39 107.897 1071.46 118.45 1071.78 130.574H1027.53C1026.63 123.004 1024.05 117.071 1019.79 112.772C1015.59 108.475 1010.1 106.326 1003.33 106.326C997.84 106.326 993.031 107.865 988.9 110.944C984.768 113.959 981.541 118.45 979.218 124.415C976.958 130.317 975.829 137.63 975.829 146.354C975.829 155.078 976.958 162.455 979.218 168.485C981.541 174.451 984.768 178.973 988.9 182.053C993.031 185.067 997.84 186.574 1003.33 186.574C1007.72 186.574 1011.59 185.645 1014.94 183.785C1018.37 181.924 1021.17 179.197 1023.37 175.606C1025.56 171.949 1026.95 167.523 1027.53 162.327H1071.78C1071.33 174.515 1068.26 185.163 1062.58 194.273C1056.96 203.382 1049.06 210.47 1038.86 215.538C1028.73 220.542 1016.69 223.044 1002.75 223.044ZM1154.17 223.044C1138.61 223.044 1125.18 219.996 1113.89 213.902C1102.66 207.743 1094.01 198.988 1087.94 187.633C1081.94 176.215 1078.94 162.648 1078.94 146.931C1078.94 131.664 1081.97 118.321 1088.04 106.903C1094.1 95.4205 1102.66 86.5039 1113.69 80.1533C1124.73 73.7385 1137.74 70.531 1152.71 70.531C1163.3 70.531 1172.98 72.1668 1181.76 75.4383C1190.54 78.7099 1198.12 83.5531 1204.51 89.9679C1210.9 96.3827 1215.87 104.305 1219.42 113.735C1222.97 123.1 1224.75 133.845 1224.75 145.969V157.708H1095.49V130.381H1180.7C1180.63 125.378 1179.44 120.919 1177.11 117.006C1174.79 113.093 1171.59 110.046 1167.53 107.865C1163.53 105.62 1158.91 104.497 1153.68 104.497C1148.39 104.497 1143.64 105.684 1139.45 108.058C1135.25 110.367 1131.93 113.542 1129.48 117.584C1127.02 121.561 1125.73 126.083 1125.6 131.151V158.959C1125.6 164.989 1126.8 170.281 1129.19 174.836C1131.57 179.326 1134.96 182.823 1139.35 185.323C1143.74 187.825 1148.97 189.076 1155.04 189.076C1159.23 189.076 1163.04 188.499 1166.46 187.344C1169.88 186.19 1172.82 184.49 1175.27 182.245C1177.73 180 1179.57 177.241 1180.79 173.97L1224.26 175.221C1222.46 184.907 1218.49 193.343 1212.36 200.527C1206.29 207.647 1198.32 213.196 1188.44 217.174C1178.57 221.087 1167.14 223.044 1154.17 223.044ZM1284.92 135.962V220.253H1237.57V72.4555H1282.59V99.5901H1284.24C1287.53 90.5452 1293.15 83.4568 1301.08 78.3251C1309.02 73.129 1318.48 70.531 1329.45 70.531C1339.91 70.531 1348.98 72.8724 1356.66 77.5552C1364.41 82.1739 1370.41 88.6529 1374.67 96.9921C1378.99 105.267 1381.12 114.954 1381.06 126.051V220.253H1333.71V135.288C1333.78 127.078 1331.68 120.663 1327.42 116.044C1323.22 111.425 1317.38 109.116 1309.89 109.116C1304.92 109.116 1300.54 110.207 1296.73 112.388C1292.98 114.504 1290.08 117.552 1288.01 121.529C1286.01 125.506 1284.98 130.317 1284.92 135.962ZM1468.43 223.044C1452.75 223.044 1439.29 219.836 1428.06 213.421C1416.89 207.006 1408.31 198.089 1402.3 186.671C1396.3 175.188 1393.3 161.91 1393.3 146.835C1393.3 131.696 1396.3 118.418 1402.3 106.999C1408.37 95.5166 1416.99 86.568 1428.15 80.1533C1439.39 73.7385 1452.78 70.531 1468.34 70.531C1482.08 70.531 1494.06 73.0007 1504.26 77.9402C1514.52 82.8796 1522.53 89.8716 1528.27 98.9165C1534.08 107.897 1537.14 118.45 1537.47 130.574H1493.22C1492.32 123.004 1489.73 117.071 1485.47 112.772C1481.28 108.475 1475.79 106.326 1469.01 106.326C1463.53 106.326 1458.72 107.865 1454.59 110.944C1450.46 113.959 1447.23 118.45 1444.91 124.415C1442.65 130.317 1441.52 137.63 1441.52 146.354C1441.52 155.078 1442.65 162.455 1444.91 168.485C1447.23 174.451 1450.46 178.973 1454.59 182.053C1458.72 185.067 1463.53 186.574 1469.01 186.574C1473.4 186.574 1477.28 185.645 1480.63 183.785C1484.05 181.924 1486.86 179.197 1489.05 175.606C1491.25 171.949 1492.64 167.523 1493.22 162.327H1537.47C1537.01 174.515 1533.95 185.163 1528.27 194.273C1522.65 203.382 1514.75 210.47 1504.54 215.538C1494.41 220.542 1482.38 223.044 1468.43 223.044ZM1619.85 223.044C1604.3 223.044 1590.87 219.996 1579.58 213.902C1568.34 207.743 1559.7 198.988 1553.62 187.633C1547.62 176.215 1544.62 162.648 1544.62 146.931C1544.62 131.664 1547.66 118.321 1553.72 106.903C1559.79 95.4205 1568.34 86.5039 1579.39 80.1533C1590.42 73.7385 1603.43 70.531 1618.4 70.531C1628.99 70.531 1638.67 72.1668 1647.45 75.4383C1656.23 78.7099 1663.81 83.5531 1670.2 89.9679C1676.59 96.3827 1681.56 104.305 1685.11 113.735C1688.66 123.1 1690.43 133.845 1690.43 145.969V157.708H1561.18V130.381H1646.38C1646.32 125.378 1645.12 120.919 1642.8 117.006C1640.47 113.093 1637.28 110.046 1633.21 107.865C1629.21 105.62 1624.6 104.497 1619.36 104.497C1614.08 104.497 1609.33 105.684 1605.14 108.058C1600.94 110.367 1597.62 113.542 1595.17 117.584C1592.71 121.561 1591.42 126.083 1591.29 131.151V158.959C1591.29 164.989 1592.49 170.281 1594.87 174.836C1597.26 179.326 1600.65 182.823 1605.04 185.323C1609.42 187.825 1614.66 189.076 1620.73 189.076C1624.92 189.076 1628.73 188.499 1632.14 187.344C1635.58 186.19 1638.51 184.49 1640.96 182.245C1643.41 180 1645.25 177.241 1646.48 173.97L1689.95 175.221C1688.14 184.907 1684.18 193.343 1678.04 200.527C1671.97 207.647 1664 213.196 1654.13 217.174C1644.25 221.087 1632.83 223.044 1619.85 223.044Z" stroke="white" stroke-opacity="0.4" stroke-width="10" mask="url(#path-1-outside-1_104_2)"></path><circle cx="135" cy="135" r="135" fill="#EF4C23"></circle><path fill-rule="evenodd" clip-rule="evenodd" d="M214.456 155.696C214.502 154.555 214.525 153.408 214.525 152.256C214.525 107.064 178.919 70.4276 134.998 70.4276C91.0766 70.4276 55.4713 107.064 55.4713 152.256C55.4713 153.418 55.4948 154.573 55.5413 155.723C65.2571 119.969 97.1532 93.7432 135.002 93.7432C172.842 93.7432 204.731 119.955 214.456 155.696Z" fill="white"></path></svg>